<svg width="40" height="40" viewBox="0 0 40 40" fill="none" xmlns="http://www.w3.org/2000/svg">
<g id="8103333_office_team_teamwork_business_partnership_icon 1">
<g id="Group">
<path id="Vector" d="M33.9075 19.0799C35.3013 18.2662 36.25 16.7712 36.25 15.0449V13.0812C36.25 11.2349 34.7475 9.73242 32.9012 9.73242H29.5975C27.7525 9.73242 26.25 11.2337 26.25 13.0799V15.0437C26.25 16.7674 27.1962 18.2599 28.585 19.0749C27.445 19.5949 26.4925 20.4337 25.855 21.5062C25.2225 21.0799 24.5387 20.7162 23.8062 20.4349C24.54 19.5649 25 18.4562 25 17.2324V16.1224C25 13.9774 23.255 12.2324 21.11 12.2324H18.8913C16.7463 12.2324 15.0013 13.9774 15.0013 16.1224V17.2324C15.0013 18.4574 15.4613 19.5649 16.1938 20.4349C15.4613 20.7162 14.7775 21.0799 14.145 21.5062C13.5075 20.4349 12.555 19.5962 11.415 19.0749C12.8038 18.2612 13.75 16.7687 13.75 15.0449V13.0812C13.75 11.2349 12.2475 9.73242 10.4012 9.73242H7.09875C5.2525 9.73242 3.75 11.2337 3.75 13.0799V15.0437C3.75 16.7712 4.69875 18.2662 6.0925 19.0787C3.9775 20.0537 2.5 22.1324 2.5 24.5537C2.5 25.2437 3.06 25.8037 3.75 25.8037C4.44 25.8037 5 25.2437 5 24.5537C5 22.5837 6.6825 20.9824 8.75 20.9824C10.2775 20.9824 11.65 21.8862 12.2188 23.1987C10.8337 24.7924 10 26.8149 10 29.0174C10 29.7074 10.56 30.2674 11.25 30.2674C11.94 30.2674 12.5 29.7074 12.5 29.0174C12.5 25.2762 15.8638 22.2312 20 22.2312C24.1362 22.2312 27.5 25.2762 27.5 29.0174C27.5 29.7074 28.06 30.2674 28.75 30.2674C29.44 30.2674 30 29.7074 30 29.0174C30 26.8149 29.1663 24.7924 27.7812 23.1987C28.35 21.8862 29.7225 20.9824 31.25 20.9824C33.3175 20.9824 35 22.5849 35 24.5537C35 25.2437 35.56 25.8037 36.25 25.8037C36.94 25.8037 37.5 25.2437 37.5 24.5537C37.5 22.1324 36.0225 20.0537 33.9075 19.0799ZM6.25 13.0799C6.25 12.6124 6.63125 12.2312 7.09875 12.2312H10.4025C10.8687 12.2324 11.25 12.6124 11.25 13.0799V15.0437C11.25 16.2499 10.2688 17.2312 9.0625 17.2312H8.4375C7.23125 17.2324 6.25 16.2499 6.25 15.0449V13.0799ZM17.5 17.2324V16.1224C17.5 15.3562 18.1238 14.7324 18.89 14.7324H21.1087C21.875 14.7324 22.4988 15.3562 22.4988 16.1224V17.2324C22.4988 18.6112 21.3775 19.7324 19.9987 19.7324C18.62 19.7324 17.5 18.6112 17.5 17.2324ZM28.75 13.0799C28.75 12.6124 29.1313 12.2312 29.5988 12.2312H32.9025C33.37 12.2312 33.7512 12.6124 33.7512 13.0799V15.0437C33.7512 16.2499 32.77 17.2312 31.5637 17.2312H30.9387C29.7325 17.2312 28.7512 16.2499 28.7512 15.0437L28.75 13.0799Z" fill="#245069"/>
</g>
</g>
</svg>
