<svg width="32" height="32" viewBox="0 0 32 32" fill="none" xmlns="http://www.w3.org/2000/svg">
<g id="3994370_business_growth_progress_statistics_up_icon 1">
<path id="Vector" d="M29.9998 5.25H21.9998C21.4693 5.25 20.9606 5.46071 20.5856 5.83579C20.2105 6.21086 19.9998 6.71957 19.9998 7.25C19.9998 7.78043 20.2105 8.28914 20.5856 8.66421C20.9606 9.03929 21.4693 9.25 21.9998 9.25H25.1716L17.9998 16.4219L11.4138 9.83593C11.2282 9.65018 11.0077 9.50282 10.7651 9.40229C10.5225 9.30175 10.2624 9.25 9.99977 9.25C9.73714 9.25 9.47708 9.30175 9.23445 9.40229C8.99182 9.50282 8.77137 9.65018 8.5857 9.83593L0.585705 17.8359C0.212394 18.2113 0.00317162 18.7194 0.00390819 19.2488C0.00464476 19.7783 0.215281 20.2858 0.589634 20.6601C0.963988 21.0345 1.47151 21.2451 2.00092 21.2459C2.53034 21.2466 3.03844 21.0374 3.41384 20.6641L9.99977 14.0781L16.5857 20.6641C16.7714 20.8498 16.9918 20.9972 17.2344 21.0977C17.4771 21.1983 17.7371 21.25 17.9998 21.25C18.2624 21.25 18.5225 21.1983 18.7651 21.0977C19.0077 20.9972 19.2282 20.8498 19.4138 20.6641L27.9998 12.0781V15.25C27.9998 15.7804 28.2105 16.2891 28.5856 16.6642C28.9606 17.0393 29.4693 17.25 29.9998 17.25C30.5302 17.25 31.0389 17.0393 31.414 16.6642C31.7891 16.2891 31.9998 15.7804 31.9998 15.25V7.25C31.9999 6.98731 31.9483 6.72718 31.8478 6.48446C31.7474 6.24174 31.6001 6.0212 31.4143 5.83545C31.2286 5.64971 31.008 5.50239 30.7653 5.40194C30.5226 5.30148 30.2625 5.24985 29.9998 5.25Z" fill="#245069"/>
</g>
</svg>
