<svg width="40" height="40" viewBox="0 0 40 40" fill="none" xmlns="http://www.w3.org/2000/svg">
<g id="9055261_bxs_binoculars_icon 1">
<path id="Vector" d="M32.4123 8.90844C32.0779 7.77442 31.3838 6.77991 30.4347 6.07491C29.4856 5.36992 28.3329 4.99268 27.1507 5.00011C25.7804 5.00133 24.4602 5.51505 23.4496 6.44028C22.4389 7.36551 21.8109 8.63533 21.689 10.0001H18.314C18.1904 8.6339 17.5603 7.36331 16.5475 6.43809C15.5347 5.51287 14.2124 4.99994 12.8407 5.00011C11.6599 4.99431 10.5093 5.37234 9.56213 6.07726C8.61493 6.78217 7.92245 7.77579 7.58898 8.90844L3.40398 22.8551C3.35814 23.0104 3.33457 23.1715 3.33398 23.3334V25.0001C3.33663 27.2097 4.21568 29.3281 5.77827 30.8903C7.34086 32.4526 9.45937 33.3312 11.669 33.3334C13.2885 33.3307 14.8721 32.8564 16.2264 31.9685C17.5808 31.0806 18.6473 29.8175 19.2957 28.3334H20.7057C21.354 29.8175 22.4205 31.0806 23.7749 31.9685C25.1292 32.8564 26.7129 33.3307 28.3323 33.3334C30.5422 33.3312 32.661 32.4524 34.2236 30.8897C35.7863 29.3271 36.6651 27.2083 36.6673 24.9984V23.3334C36.6673 23.1701 36.6423 23.0101 36.5973 22.8551L32.4123 8.90844ZM11.669 30.0001C10.3433 29.9983 9.07237 29.471 8.13481 28.5338C7.19724 27.5965 6.66952 26.3258 6.66732 25.0001C6.66732 24.8734 6.69565 24.7551 6.70398 24.6301C6.79517 23.3748 7.35722 22.2002 8.27759 21.3417C9.19795 20.4831 10.4087 20.0039 11.6673 20.0001C12.9934 20.0001 14.2652 20.5269 15.2029 21.4646C16.1405 22.4023 16.6673 23.674 16.6673 25.0001V25.0151C16.6616 26.3378 16.1327 27.6044 15.1962 28.5384C14.2597 29.4724 12.9916 29.9979 11.669 30.0001ZM28.3323 30.0001C27.0097 29.9979 25.7416 29.4724 24.8051 28.5384C23.8686 27.6044 23.3397 26.3378 23.334 25.0151V25.0001C23.3339 24.3435 23.4631 23.6933 23.7143 23.0866C23.9654 22.48 24.3336 21.9287 24.7979 21.4643C25.7354 20.5265 27.0071 19.9995 28.3332 19.9993C29.6592 19.9991 30.9311 20.5256 31.8689 21.4632C32.8068 22.4007 33.3338 23.6724 33.334 24.9984C33.3322 26.3244 32.8047 27.5956 31.8671 28.5332C30.9295 29.4708 29.6583 29.9983 28.3323 30.0001Z" fill="#245069"/>
</g>
</svg>
