<svg width="40" height="40" viewBox="0 0 40 40" fill="none" xmlns="http://www.w3.org/2000/svg">
<g id="3643730_finish_goal_goals_mark_target_icon 1">
<g id="Layer 48">
<path id="Vector" d="M20 35C17.0333 35 14.1332 34.1203 11.6665 32.472C9.19972 30.8238 7.27713 28.4811 6.14181 25.7403C5.0065 22.9994 4.70945 19.9834 5.28823 17.0737C5.86701 14.1639 7.29562 11.4912 9.3934 9.3934C11.4912 7.29562 14.1639 5.86701 17.0737 5.28823C19.9834 4.70945 22.9994 5.0065 25.7403 6.14181C28.4811 7.27713 30.8238 9.19972 32.472 11.6665C34.1203 14.1332 35 17.0333 35 20C35 23.9783 33.4197 27.7936 30.6066 30.6066C27.7936 33.4197 23.9783 35 20 35ZM20 7.50001C17.5277 7.50001 15.111 8.23312 13.0554 9.60664C10.9998 10.9802 9.39761 12.9324 8.45151 15.2165C7.50542 17.5005 7.25788 20.0139 7.74019 22.4386C8.22251 24.8634 9.41302 27.0907 11.1612 28.8388C12.9093 30.587 15.1366 31.7775 17.5614 32.2598C19.9861 32.7421 22.4995 32.4946 24.7836 31.5485C27.0676 30.6024 29.0199 29.0002 30.3934 26.9446C31.7669 24.889 32.5 22.4723 32.5 20C32.5 16.6848 31.183 13.5054 28.8388 11.1612C26.4946 8.81697 23.3152 7.50001 20 7.50001Z" fill="#245069"/>
<path id="Vector_2" d="M21.25 37.5V31.25C21.25 30.5596 20.6904 30 20 30C19.3096 30 18.75 30.5596 18.75 31.25V37.5C18.75 38.1904 19.3096 38.75 20 38.75C20.6904 38.75 21.25 38.1904 21.25 37.5Z" fill="#245069"/>
<path id="Vector_3" d="M21.25 8.75V2.5C21.25 1.80964 20.6904 1.25 20 1.25C19.3096 1.25 18.75 1.80964 18.75 2.5V8.75C18.75 9.44036 19.3096 10 20 10C20.6904 10 21.25 9.44036 21.25 8.75Z" fill="#245069"/>
<path id="Vector_4" d="M37.5 18.75H31.25C30.5596 18.75 30 19.3096 30 20C30 20.6904 30.5596 21.25 31.25 21.25H37.5C38.1904 21.25 38.75 20.6904 38.75 20C38.75 19.3096 38.1904 18.75 37.5 18.75Z" fill="#245069"/>
<path id="Vector_5" d="M8.75 18.75H2.5C1.80964 18.75 1.25 19.3096 1.25 20C1.25 20.6904 1.80964 21.25 2.5 21.25H8.75C9.44036 21.25 10 20.6904 10 20C10 19.3096 9.44036 18.75 8.75 18.75Z" fill="#245069"/>
<path id="Vector_6" d="M20 25C19.0111 25 18.0444 24.7068 17.2222 24.1574C16.3999 23.6079 15.759 22.827 15.3806 21.9134C15.0022 20.9998 14.9031 19.9945 15.0961 19.0246C15.289 18.0546 15.7652 17.1637 16.4645 16.4645C17.1637 15.7652 18.0546 15.289 19.0246 15.0961C19.9945 14.9031 20.9998 15.0022 21.9134 15.3806C22.827 15.759 23.6079 16.3999 24.1574 17.2222C24.7068 18.0444 25 19.0111 25 20C25 21.3261 24.4732 22.5979 23.5355 23.5355C22.5979 24.4732 21.3261 25 20 25ZM20 17.5C19.5055 17.5 19.0222 17.6466 18.6111 17.9213C18.2 18.196 17.8795 18.5865 17.6903 19.0433C17.5011 19.5001 17.4516 20.0028 17.548 20.4877C17.6445 20.9727 17.8826 21.4181 18.2322 21.7678C18.5819 22.1174 19.0273 22.3555 19.5123 22.452C19.9972 22.5484 20.4999 22.4989 20.9567 22.3097C21.4135 22.1205 21.804 21.8001 22.0787 21.3889C22.3534 20.9778 22.5 20.4945 22.5 20C22.5 19.337 22.2366 18.7011 21.7678 18.2322C21.2989 17.7634 20.663 17.5 20 17.5Z" fill="#245069"/>
</g>
</g>
</svg>
