<svg width="40" height="40" viewBox="0 0 40 40" fill="none" xmlns="http://www.w3.org/2000/svg">
<g id="3533412_advantage_business_competition_competitive_growth_icon (1) 1">
<g id="Group">
<path id="Vector" d="M24.4587 13.8516H15.0453C14.7554 13.8516 14.4219 14.1942 14.4219 14.4861V14.6619V34.4348C14.4219 34.7249 14.7555 34.9453 15.0453 34.9453H24.4586C24.7485 34.9453 24.9687 34.7249 24.9687 34.4348V14.6619V14.4861C24.9687 14.1942 24.7486 13.8516 24.4587 13.8516Z" fill="#245069"/>
<path id="Vector_2" d="M16.0026 8.15349L17.7274 9.43732C17.8553 9.53021 17.9087 9.71013 17.86 9.86044L17.2011 11.8958C17.0921 12.2319 17.4765 12.5151 17.7624 12.3075L19.4872 11.056C19.6151 10.9631 19.7882 10.964 19.916 11.0569L21.6408 12.3108C21.9266 12.5184 22.3111 12.2391 22.2019 11.9032L21.5432 9.8756C21.4943 9.72529 21.5479 9.56076 21.6756 9.46794L23.4006 8.15341C23.6865 7.94576 23.5394 7.43263 23.1862 7.43263H21.0541C20.8962 7.43263 20.7561 7.39201 20.7073 7.24169L20.0484 5.24458C19.9393 4.90841 19.464 4.9238 19.3547 5.25982L18.696 7.23404C18.647 7.38435 18.5069 7.43263 18.349 7.43263H16.2167C15.8636 7.43271 15.7168 7.94583 16.0026 8.15349Z" fill="#245069"/>
<path id="Vector_3" d="M12.5469 24.6133C12.5469 24.322 12.3108 24.0859 12.0195 24.0859H2.52734C2.23609 24.0859 2 24.322 2 24.6133V34.4961C2 34.7873 2.23609 35.0234 2.52734 35.0234H12.0195C12.3108 35.0234 12.5469 34.7873 12.5469 34.4961V24.6133Z" fill="#245069"/>
<path id="Vector_4" d="M37.625 24.6133C37.625 24.322 37.3889 24.0859 37.0977 24.0859H27.6055C27.3142 24.0859 27.0781 24.322 27.0781 24.6133V34.4961C27.0781 34.7873 27.3142 35.0234 27.6055 35.0234H37.0977C37.3889 35.0234 37.625 34.7873 37.625 34.4961V24.6133Z" fill="#245069"/>
</g>
</g>
</svg>
