<svg width="40" height="40" viewBox="0 0 40 40" fill="none" xmlns="http://www.w3.org/2000/svg">
<g id="5040790_athletic_exercise_football_game_soccer_icon 1">
<g id="_x30_1">
<path id="Vector" d="M34.6615 11.5006C34.6208 11.4444 34.5752 11.3923 34.5264 11.3427C33.4912 10.0048 32.1077 8.9436 30.5046 8.26407C25.4313 6.14412 19.5622 8.56518 17.4268 13.6555C17.2268 14.1304 17.0678 14.6189 16.9477 15.1159C16.8019 15.7193 16.1935 16.1218 15.5991 15.9433L15.4736 15.9057C15.1497 15.8088 14.7965 15.8137 14.4694 15.9211L10.313 17.3066C10.1077 17.375 9.88578 17.375 9.68052 17.3066L5.52409 15.9211C5.01465 15.7535 4.45801 15.8357 4.02181 16.1506C3.58724 16.4639 3.33008 16.9669 3.33008 17.5024V25.8357C3.33008 27.8971 4.59137 29.6542 6.37728 30.4165C6.54671 30.4888 6.66341 30.6515 6.66341 30.8357C6.66341 31.7561 7.40885 32.5024 8.33008 32.5024C8.96148 32.5024 9.5103 32.1518 9.79314 31.6349C10.014 31.2311 10.3698 30.8357 10.8301 30.8357C11.2903 30.8357 11.6461 31.2311 11.867 31.6349C12.1499 32.1518 12.6987 32.5024 13.3301 32.5024C13.9615 32.5024 14.5103 32.1518 14.7931 31.6349C15.014 31.2311 15.3698 30.8357 15.8301 30.8357C16.2903 30.8357 16.6461 31.2311 16.867 31.6349C17.1499 32.1518 17.6987 32.5024 18.3301 32.5024C18.9615 32.5024 19.5103 32.1518 19.7931 31.6349C20.014 31.2311 20.3698 30.8357 20.8301 30.8357C21.2903 30.8357 21.6461 31.2311 21.867 31.6349C22.1499 32.1518 22.6987 32.5024 23.3301 32.5024C23.9615 32.5024 24.5103 32.1518 24.7931 31.6349C25.014 31.2311 25.3698 30.8357 25.8301 30.8357C26.2903 30.8357 26.6461 31.2311 26.867 31.6349C27.1499 32.1518 27.6987 32.5024 28.3301 32.5024C29.2513 32.5024 29.9967 31.7561 29.9967 30.8357C29.9967 30.7148 30.0768 30.6092 30.1913 30.5703C32.0105 29.9516 33.3301 28.245 33.3301 26.219C33.3301 26.0092 33.3189 25.802 33.2984 25.5973C33.2631 25.245 33.3855 24.8925 33.6399 24.6462C34.5888 23.7273 35.3593 22.6169 35.8968 21.3557C35.8994 21.3505 35.9012 21.3449 35.9035 21.3395C37.2632 18.0958 36.787 14.327 34.6615 11.5006ZM31.1734 21.3261C31.0169 21.1823 30.8518 21.0515 30.6837 20.9241C30.5842 20.8486 30.4882 20.7693 30.3848 20.6997C30.2474 20.6072 30.2841 20.403 30.4495 20.3933C30.8341 20.3708 31.277 20.3991 31.7844 20.4981C32.1586 20.5711 32.3341 20.9943 32.1219 21.311C32.06 21.4035 31.996 21.494 31.9296 21.5824C31.8172 21.7321 31.5865 21.7428 31.4563 21.6083C31.3633 21.5121 31.2713 21.416 31.1734 21.3261ZM26.1221 18.8281C25.9934 18.9543 25.8078 19.0066 25.6351 18.9547C25.3808 18.8783 25.2387 18.606 25.3384 18.3599C26.0864 16.515 27.7141 14.608 31.829 14.2388C32.2036 14.2052 32.5662 14.3993 32.7228 14.7413C32.924 15.1809 33.076 15.6387 33.1775 16.1063C33.3192 16.7595 32.6814 17.249 32.0204 17.1501C29.2082 16.7294 27.2538 17.718 26.1221 18.8281ZM20.4997 14.9478C21.5072 12.5473 23.7534 11.0382 26.173 10.8528C27.1356 10.7791 27.1704 11.9564 26.3314 12.434C24.288 13.5969 23.0593 15.2594 22.3288 16.9501C22.1144 17.4464 21.5715 17.7326 21.0538 17.5769L20.7304 17.4797C20.2975 17.3495 19.9977 16.9434 20.0648 16.4964C20.1443 15.9668 20.2903 15.4465 20.4997 14.9478ZM28.7142 27.5024H8.33008C7.41048 27.5024 6.66341 26.7545 6.66341 25.8357V21.202C6.66341 20.5194 7.33224 20.0374 7.9798 20.2534L9.4694 20.7502C9.8112 20.8642 10.1823 20.8642 10.5241 20.7502L14.724 19.3505C14.9195 19.2854 15.1303 19.2822 15.3277 19.3415L27.6237 23.033C28.3073 23.2364 28.9063 23.6555 29.3555 24.2463C29.4987 24.4351 29.6322 24.6874 29.7721 25.0357C29.9219 25.3995 29.9967 25.7974 29.9967 26.219C29.9967 26.927 29.4222 27.5024 28.7142 27.5024Z" fill="#245069"/>
</g>
</g>
</svg>
