<svg width="40" height="40" viewBox="0 0 40 40" fill="none" xmlns="http://www.w3.org/2000/svg">
<g id="7898471_monitoring_business_finance_office_marketing_icon 1">
<g id="g2066">
<path id="rect2025" d="M3.41797 4.61523C2.86569 4.61523 2.41797 5.06295 2.41797 5.61523V29.377C2.41797 29.9292 2.86568 30.377 3.41797 30.377H16.5814C16.1959 31.4901 15.8116 32.6037 15.4258 33.7168H12.1934C11.666 34.166 12.0693 35.0153 12.2878 35.3835H27.8053C27.7428 34.8593 28.3327 34.166 27.7109 33.7168H24.5729C24.1876 32.6042 23.8034 31.4905 23.4206 30.377H36.5807C37.133 30.377 37.5807 29.9292 37.5807 29.377V5.61523C37.5807 5.06295 37.133 4.61523 36.5807 4.61523H3.41797ZM19.9993 10.4486C22.731 10.4486 24.9082 12.5861 24.9082 15.2207C24.9082 17.8553 22.731 19.9928 19.9993 19.9928C17.2677 19.9928 15.0905 17.8553 15.0905 15.2207C15.0905 12.5861 17.2677 10.4486 19.9993 10.4486ZM25.1263 11.2428C26.4587 11.739 27.5151 12.3891 28.3359 13.0365C29.7586 14.1585 30.1374 14.923 30.3118 15.2207C30.1367 15.5195 29.7574 16.2806 28.3359 17.4017C27.5165 18.0479 26.4619 18.6963 25.1328 19.1921C26.0206 18.0953 26.5749 16.7276 26.5749 15.2207C26.5749 13.7105 26.0175 12.3407 25.1263 11.2428ZM14.8301 11.2917C13.9632 12.3815 13.4238 13.7336 13.4238 15.2207C13.4238 16.7053 13.9626 18.0544 14.8268 19.1432C11.5327 17.8867 10.0426 15.7204 9.72917 15.2207C10.0416 14.7225 11.5318 12.5494 14.8301 11.2917ZM19.9993 13.7656C19.1432 13.7656 18.4889 14.42 18.4889 15.2207C18.4889 16.0214 19.1432 16.6725 19.9993 16.6725C20.8555 16.6725 21.5098 16.0214 21.5098 15.2207C21.5098 14.42 20.8555 13.7656 19.9993 13.7656ZM4.08464 26.5169C4.08464 25.9646 4.53235 25.5169 5.08464 25.5169H34.9141C35.4663 25.5169 35.9141 25.9646 35.9141 26.5169V27.7103C35.9141 28.2626 35.4664 28.7103 34.9141 28.7103H5.08464C4.53235 28.7103 4.08464 28.2626 4.08464 27.7103V26.5169Z" fill="#245069"/>
</g>
</g>
</svg>
