<svg width="40" height="40" viewBox="0 0 40 40" fill="none" xmlns="http://www.w3.org/2000/svg">
<g id="7977456_natural_resources_sustainability_ecology_growth_icon 1">
<g id="Air_quality_control">
<path id="Vector" d="M17.1178 7.16673C17.1366 7.29401 17.193 7.41276 17.2798 7.50777C17.3665 7.60278 17.4797 7.66972 17.6047 7.70002C17.7298 7.73032 17.861 7.72259 17.9817 7.67782C18.1023 7.63306 18.2068 7.5533 18.2818 7.44876L19.6388 5.58938C19.7392 5.45072 19.7804 5.2779 19.7535 5.10887C19.7265 4.93983 19.6336 4.7884 19.4951 4.68782L17.6388 3.3261C17.5357 3.25054 17.4125 3.20727 17.2848 3.20177C17.1571 3.19627 17.0306 3.22878 16.9213 3.29519C16.8121 3.36161 16.725 3.45893 16.6711 3.57486C16.6172 3.69078 16.5989 3.82009 16.6185 3.94642L16.6279 4.00616C16.7102 4.53249 16.3643 5.02765 15.8503 5.16759C13.948 5.68545 12.1569 6.55649 10.5717 7.73808C8.7319 9.10939 7.21379 10.8659 6.12342 12.8849C5.03305 14.9039 4.39673 17.1366 4.25892 19.4271C4.12111 21.7176 4.48514 24.0105 5.32556 26.1456L5.9221 27.5081C6.03432 27.7644 6.28757 27.93 6.56735 27.93C7.0757 27.93 7.41666 27.4079 7.2123 26.9425L6.63025 25.6167C5.86863 23.6784 5.53808 21.5976 5.66158 19.5187C5.78507 17.4398 6.35965 15.4128 7.34539 13.5783C8.33113 11.7438 9.70441 10.1459 11.3698 8.89557C12.8114 7.81335 14.4418 7.01397 16.1749 6.53674C16.6139 6.41587 17.0482 6.71676 17.1178 7.16673Z" fill="#245069"/>
<path id="Vector_2" d="M35.4906 26.2242C34.9949 26.0215 34.7553 25.4604 34.9165 24.9496C35.3995 23.4182 35.6451 21.8198 35.643 20.2102C35.643 12.9358 30.6318 6.61068 23.6294 4.90865C23.2519 4.81688 22.8816 5.06698 22.807 5.44827C22.7324 5.82938 22.9816 6.19716 23.3585 6.29053C29.7022 7.86166 34.2344 13.6062 34.2344 20.2102C34.2369 21.6619 34.0182 23.1038 33.5871 24.4865C33.4423 24.951 32.9259 25.1729 32.4758 24.9883C32.3576 24.9396 32.2276 24.9271 32.1023 24.9524C31.977 24.9777 31.862 25.0396 31.772 25.1303C31.6819 25.2211 31.6209 25.3365 31.5965 25.462C31.5721 25.5874 31.5856 25.7173 31.6352 25.8352L32.525 27.9586C32.5912 28.1164 32.7174 28.2414 32.8757 28.3063C33.034 28.3712 33.2116 28.3706 33.3695 28.3047L35.4937 27.4219C35.6129 27.3733 35.7147 27.2902 35.7864 27.1833C35.858 27.0765 35.896 26.9506 35.8957 26.822C35.8954 26.6933 35.8566 26.5677 35.7845 26.4612C35.7123 26.3547 35.61 26.2722 35.4906 26.2242Z" fill="#245069"/>
<path id="Vector_3" d="M26.7021 14.3077C25.2247 14.2366 22.4528 14.4038 20.4786 16.3077C20.1602 16.6149 19.6321 16.6151 19.3138 16.3077C17.3388 14.4038 14.5669 14.2366 13.0896 14.3077C12.6182 14.3282 12.1717 14.5247 11.8381 14.8584C11.5046 15.1921 11.3083 15.6387 11.288 16.1101C11.2177 17.5866 11.3841 20.3585 13.288 22.3335C14.2817 23.3643 15.6074 24.036 17.2443 24.3435C18.3149 24.5446 19.1943 25.407 19.1943 26.4964V28.8163C19.1943 29.9209 18.2988 30.8163 17.1943 30.8163H14.3247C13.9364 30.8163 13.6216 31.1311 13.6216 31.5195C13.6216 31.9078 13.9364 32.2226 14.3247 32.2226H25.4239C25.8123 32.2226 26.1271 31.9078 26.1271 31.5195C26.1271 31.1311 25.8123 30.8163 25.4239 30.8163H22.6005C21.4959 30.8163 20.6005 29.9209 20.6005 28.8163V26.4957C20.6005 25.4067 21.4795 24.5443 22.5498 24.3429C24.1856 24.0351 25.5108 23.3636 26.5044 22.3335C28.4083 20.3585 28.5747 17.5866 28.5044 16.1101C28.4838 15.6387 28.2872 15.1922 27.9536 14.8585C27.62 14.5249 27.1734 14.3284 26.7021 14.3077ZM12.6927 16.1765C12.698 16.0551 12.7487 15.9402 12.8345 15.8543C12.9204 15.7684 13.0354 15.7178 13.1568 15.7124C14.4068 15.6523 16.7427 15.7827 18.3372 17.3202C18.6611 17.6322 18.9409 17.9898 19.1764 18.3919C19.6193 19.148 18.2314 19.7933 17.4562 19.3849C17.4112 19.3612 17.3677 19.339 17.3257 19.3181C16.9987 19.1556 16.6282 19.3433 16.5175 19.6914C16.4061 20.0419 16.5989 20.4274 16.9205 20.6059C17.1595 20.7387 17.4467 20.9239 17.7392 21.1723C18.6242 21.9239 17.8331 23.1073 16.7204 22.7754C15.736 22.4818 14.9263 22.0091 14.3005 21.3601C12.763 19.7656 12.6333 17.4265 12.6927 16.1765Z" fill="#245069"/>
</g>
</g>
</svg>
