<svg width="40" height="40" viewBox="0 0 40 40" fill="none" xmlns="http://www.w3.org/2000/svg">
<g id="3289574_clan_family_group_peer_people_icon 1">
<g id="Group">
<path id="Vector" d="M30.4167 9.66732C32.0275 9.66732 33.3333 8.36148 33.3333 6.75065C33.3333 5.13982 32.0275 3.83398 30.4167 3.83398C28.8058 3.83398 27.5 5.13982 27.5 6.75065C27.5 8.36148 28.8058 9.66732 30.4167 9.66732Z" fill="#245069"/>
<path id="Vector_2" d="M9.58464 9.66732C11.1955 9.66732 12.5013 8.36148 12.5013 6.75065C12.5013 5.13982 11.1955 3.83398 9.58464 3.83398C7.9738 3.83398 6.66797 5.13982 6.66797 6.75065C6.66797 8.36148 7.9738 9.66732 9.58464 9.66732Z" fill="#245069"/>
<path id="Vector_3" d="M20.0007 9.66732C21.6115 9.66732 22.9173 8.36148 22.9173 6.75065C22.9173 5.13982 21.6115 3.83398 20.0007 3.83398C18.3898 3.83398 17.084 5.13982 17.084 6.75065C17.084 8.36148 18.3898 9.66732 20.0007 9.66732Z" fill="#245069"/>
<path id="Vector_4" d="M27.4173 20.3346L25.5423 13.418C25.4589 13.168 25.3339 12.918 25.1673 12.7513C24.3756 11.918 23.3756 11.293 22.2923 10.918C21.5839 10.668 20.8339 10.543 20.0423 10.543C19.2506 10.543 18.5006 10.668 17.7923 10.918C16.6673 11.293 15.7089 11.918 14.9173 12.7513C14.7506 12.9596 14.6256 13.168 14.5423 13.418L12.6673 20.3346C12.5006 21.0013 12.8339 21.7513 13.5423 21.918C13.6673 21.9596 13.7506 21.9596 13.8756 21.9596C14.4173 21.9596 14.9173 21.5846 15.0839 21.043C15.3453 20.0889 16.7506 20.2779 16.7506 21.2671V34.918C16.7506 35.6083 17.3102 36.168 18.0006 36.168C18.691 36.168 19.2506 35.6083 19.2506 34.918V25.0846C19.2506 24.6244 19.6237 24.2513 20.0839 24.2513C20.5442 24.2513 20.9173 24.6244 20.9173 25.0846V34.8763C20.9173 35.5667 21.4769 36.1263 22.1673 36.1263C22.8576 36.1263 23.4173 35.5667 23.4173 34.8763V21.2671C23.4173 20.2779 24.8225 20.0889 25.0839 21.043C25.2506 21.5846 25.7506 21.9596 26.2923 21.9596C26.4173 21.9596 26.5006 21.9596 26.6256 21.918C27.2089 21.7513 27.5839 21.0013 27.4173 20.3346Z" fill="#245069"/>
<path id="Vector_5" d="M11.7923 20.125L13.6673 13.2083C13.8059 12.5847 13.8046 11.8776 13.2573 11.548C12.7998 11.2724 12.3031 11.0453 11.7923 10.875C11.0839 10.625 10.3339 10.5 9.54226 10.5C8.7506 10.5 8.0006 10.625 7.29226 10.875C6.16726 11.25 5.20893 11.875 4.41726 12.7083C4.2506 12.9167 4.1256 13.125 4.04226 13.375L2.16726 20.3333C2.0006 21 2.33393 21.75 3.04226 21.9167C3.16726 21.9583 3.2506 21.9583 3.3756 21.9583C3.91726 21.9583 4.41726 21.5833 4.58393 21.0417C4.84532 20.0876 6.2506 20.2766 6.2506 21.2658V34.9167C6.2506 35.607 6.81024 36.1667 7.5006 36.1667C8.19095 36.1667 8.7506 35.607 8.7506 34.9167V25.0833C8.7506 24.6231 9.12369 24.25 9.58393 24.25C10.0442 24.25 10.4173 24.6231 10.4173 25.0833V34.875C10.4173 35.5654 10.9769 36.125 11.6673 36.125C12.3576 36.125 12.9173 35.5654 12.9173 34.875V23.8878C12.9173 23.1164 12.3927 22.4426 12.0147 21.7701C11.7481 21.2957 11.6518 20.7103 11.7923 20.125Z" fill="#245069"/>
<path id="Vector_6" d="M37.8346 20.3346L35.918 13.418C35.8346 13.168 35.7096 12.918 35.543 12.7513C34.7513 11.918 33.7513 11.293 32.668 10.918C31.9596 10.668 31.2096 10.543 30.418 10.543C29.6263 10.543 28.8763 10.668 28.168 10.918C27.6414 11.0935 27.145 11.3294 26.6788 11.6166C26.1689 11.9306 26.1477 12.6287 26.293 13.2096L28.168 20.1263C28.3328 20.7149 28.2315 21.3035 27.9544 21.7793C27.5662 22.4459 27.043 23.1177 27.043 23.8891V34.918C27.043 35.6083 27.6026 36.168 28.293 36.168C28.9833 36.168 29.543 35.6083 29.543 34.918V25.0846C29.543 24.6244 29.9161 24.2513 30.3763 24.2513C30.8365 24.2513 31.2096 24.6244 31.2096 25.0846V34.8763C31.2096 35.5667 31.7693 36.1263 32.4596 36.1263C33.15 36.1263 33.7096 35.5667 33.7096 34.8763V21.2671C33.7096 20.2779 35.1149 20.0889 35.3763 21.043C35.543 21.5846 36.043 21.9596 36.5846 21.9596C36.7096 21.9596 36.793 21.9596 36.918 21.918C37.6263 21.7513 38.0013 21.0013 37.8346 20.3346Z" fill="#245069"/>
</g>
</g>
</svg>
