<svg width="40" height="40" viewBox="0 0 40 40" fill="none" xmlns="http://www.w3.org/2000/svg">
<g id="9989651_rating_evaluation_grade_ranking_rate_icon 1">
<g id="Layer_x0020_1">
<path id="Vector" d="M6.45607 4.16992H33.5423C36.8447 4.16992 39.5433 6.86853 39.5433 10.1709V29.8303C39.5433 33.1327 36.8447 35.8313 33.5423 35.8313H6.45607C3.15321 35.8313 0.455078 33.1327 0.455078 29.8303V10.1709C0.455078 6.86853 3.15368 4.16992 6.45607 4.16992ZM28.9199 21.0976L29.8151 23.8709L32.7297 23.8652L30.3689 25.574L31.2745 28.344L28.9199 26.6262L26.5657 28.344L27.4714 25.574L25.1101 23.8652L28.0246 23.8709L28.9199 21.0976ZM19.9992 21.0976L20.8945 23.8709L23.809 23.8652L21.4477 25.574L22.3538 28.344L19.9992 26.6262L17.6445 28.344L18.5507 25.574L16.1894 23.8652L19.1039 23.8709L19.9992 21.0976ZM11.0785 21.0976L11.9738 23.8709L14.8883 23.8652L12.527 25.574L13.4327 28.344L11.0785 26.6262L8.7238 28.344L9.62948 25.574L7.26868 23.8652L10.1832 23.8709L11.0785 21.0976ZM28.9199 11.6572L29.8151 14.4305L32.7297 14.4248L30.3689 16.1336L31.2745 18.9036L28.9199 17.1858L26.5657 18.9036L27.4714 16.1336L25.1101 14.4248L28.0246 14.4305L28.9199 11.6572ZM19.9992 11.6572L20.8945 14.4305L23.809 14.4248L21.4477 16.1336L22.3538 18.9036L19.9992 17.1858L17.6445 18.9036L18.5507 16.1336L16.1894 14.4248L19.1039 14.4305L19.9992 11.6572ZM11.0785 11.6572L11.9738 14.4305L14.8883 14.4248L12.527 16.1336L13.4327 18.9036L11.0785 17.1858L8.7238 18.9036L9.62948 16.1336L7.26868 14.4248L10.1832 14.4305L11.0785 11.6572ZM33.5423 6.12443H6.45607C4.23275 6.12443 2.40958 7.94759 2.40958 10.1709V29.8303C2.40958 32.0536 4.23227 33.8768 6.45607 33.8768H33.5423C35.7656 33.8768 37.5888 32.0536 37.5888 29.8303V10.1709C37.5888 7.94759 35.7656 6.12443 33.5423 6.12443Z" fill="#245069"/>
</g>
</g>
</svg>
