<svg width="28" height="32" viewBox="0 0 28 32" fill="none" xmlns="http://www.w3.org/2000/svg">
<g id="8664950_book_education_icon 1" clip-path="url(#clip0_2092_5066)">
<path id="Vector" d="M28 21V3C28 1.34312 26.6562 0 25 0H6C2.68625 0 0 2.68625 0 6V26C0 29.3137 2.68625 32 6 32H26C27.1044 32 28 31.1044 28 30.0562C28 29.3237 27.5871 28.7112 27 28.3625V23.2775C27.6125 22.675 28 21.8875 28 21ZM8.94375 8H20.9438C21.55 8 22 8.45 22 9C22 9.55 21.55 10 21 10H8.94375C8.45 10 8 9.55 8 9C8 8.45 8.45 8 8.94375 8ZM8.94375 12H20.9438C21.55 12 22 12.45 22 13C22 13.55 21.55 14 21 14H8.94375C8.45 14 8 13.55 8 13C8 12.45 8.45 12 8.94375 12ZM24 28H6C4.89563 28 4 27.1044 4 26C4 24.8956 4.89563 24 6 24H24V28Z" fill="#245069"/>
</g>
<defs>
<clipPath id="clip0_2092_5066">
<rect width="28" height="32" fill="white"/>
</clipPath>
</defs>
</svg>
