<svg width="40" height="40" viewBox="0 0 40 40" fill="none" xmlns="http://www.w3.org/2000/svg">
<g id="4763252_awarded_cap_commencement_degree_graduate_icon 1">
<g id="Layer 2">
<path id="Vector" d="M2.95851 14.0868C2.16633 14.4386 2.16643 15.563 2.95867 15.9147L8.33372 18.3009L11.6671 19.7842L19.5946 23.3041C19.853 23.4188 20.1478 23.4188 20.4062 23.3041L28.3337 19.7842L31.6671 18.3009L31.931 18.1848C32.5919 17.894 33.3337 18.378 33.3337 19.1001V25.6676C33.3337 26.2199 33.7814 26.6676 34.3337 26.6676H35.6671C36.2193 26.6676 36.6671 26.2199 36.6671 25.6676V16.6811C36.6671 16.3181 36.8807 15.9891 37.2123 15.8415C37.9397 15.5177 37.9392 14.4852 37.2116 14.162L20.4063 6.69787C20.1479 6.58308 19.8529 6.58308 19.5945 6.69787L2.95851 14.0868Z" fill="#245069"/>
<path id="Vector_2" d="M30.7507 31.4845L31.108 31.3091C31.4504 31.141 31.6673 30.7928 31.6673 30.4114V23.4897C31.6673 22.7661 30.9226 22.2821 30.2613 22.5758L20.4067 26.9541C20.1482 27.069 19.8531 27.069 19.5946 26.9541L9.74 22.5758C9.07873 22.2821 8.33398 22.7661 8.33398 23.4897V30.4114C8.33398 30.7928 8.55094 31.141 8.89331 31.3091L9.25065 31.4845C12.5894 33.15 16.2695 34.0169 20.0007 34.0169C23.7318 34.0169 27.4119 33.15 30.7507 31.4845Z" fill="#245069"/>
</g>
</g>
</svg>
