<svg width="40" height="40" viewBox="0 0 40 40" fill="none" xmlns="http://www.w3.org/2000/svg">
<g id="9055261_bxs_binoculars_icon 1">
<g id="Group">
<path id="Vector" d="M30.4167 8.66732C32.0275 8.66732 33.3333 7.36148 33.3333 5.75065C33.3333 4.13982 32.0275 2.83398 30.4167 2.83398C28.8058 2.83398 27.5 4.13982 27.5 5.75065C27.5 7.36148 28.8058 8.66732 30.4167 8.66732Z" fill="#245069"/>
<path id="Vector_2" d="M9.58464 8.66732C11.1955 8.66732 12.5013 7.36148 12.5013 5.75065C12.5013 4.13982 11.1955 2.83398 9.58464 2.83398C7.9738 2.83398 6.66797 4.13982 6.66797 5.75065C6.66797 7.36148 7.9738 8.66732 9.58464 8.66732Z" fill="#245069"/>
<path id="Vector_3" d="M20.0007 8.66732C21.6115 8.66732 22.9173 7.36148 22.9173 5.75065C22.9173 4.13982 21.6115 2.83398 20.0007 2.83398C18.3898 2.83398 17.084 4.13982 17.084 5.75065C17.084 7.36148 18.3898 8.66732 20.0007 8.66732Z" fill="#245069"/>
<path id="Vector_4" d="M27.4173 19.3346L25.5423 12.418C25.4589 12.168 25.3339 11.918 25.1673 11.7513C24.3756 10.918 23.3756 10.293 22.2923 9.91797C21.5839 9.66797 20.8339 9.54297 20.0423 9.54297C19.2506 9.54297 18.5006 9.66797 17.7923 9.91797C16.6673 10.293 15.7089 10.918 14.9173 11.7513C14.7506 11.9596 14.6256 12.168 14.5423 12.418L12.6673 19.3346C12.5006 20.0013 12.8339 20.7513 13.5423 20.918C13.6673 20.9596 13.7506 20.9596 13.8756 20.9596C14.4173 20.9596 14.9173 20.5846 15.0839 20.043C15.3453 19.0889 16.7506 19.2779 16.7506 20.2671V33.918C16.7506 34.6083 17.3102 35.168 18.0006 35.168C18.691 35.168 19.2506 34.6083 19.2506 33.918V24.0846C19.2506 23.6244 19.6237 23.2513 20.0839 23.2513C20.5442 23.2513 20.9173 23.6244 20.9173 24.0846V33.8763C20.9173 34.5667 21.4769 35.1263 22.1673 35.1263C22.8576 35.1263 23.4173 34.5667 23.4173 33.8763V20.2671C23.4173 19.2779 24.8225 19.0889 25.0839 20.043C25.2506 20.5846 25.7506 20.9596 26.2923 20.9596C26.4173 20.9596 26.5006 20.9596 26.6256 20.918C27.2089 20.7513 27.5839 20.0013 27.4173 19.3346Z" fill="#245069"/>
<path id="Vector_5" d="M11.7923 19.125L13.6673 12.2083C13.8059 11.5847 13.8046 10.8776 13.2573 10.548C12.7998 10.2724 12.3031 10.0453 11.7923 9.875C11.0839 9.625 10.3339 9.5 9.54226 9.5C8.7506 9.5 8.0006 9.625 7.29226 9.875C6.16726 10.25 5.20893 10.875 4.41726 11.7083C4.2506 11.9167 4.1256 12.125 4.04226 12.375L2.16726 19.3333C2.0006 20 2.33393 20.75 3.04226 20.9167C3.16726 20.9583 3.2506 20.9583 3.3756 20.9583C3.91726 20.9583 4.41726 20.5833 4.58393 20.0417C4.84532 19.0876 6.2506 19.2766 6.2506 20.2658V33.9167C6.2506 34.607 6.81024 35.1667 7.5006 35.1667C8.19095 35.1667 8.7506 34.607 8.7506 33.9167V24.0833C8.7506 23.6231 9.12369 23.25 9.58393 23.25C10.0442 23.25 10.4173 23.6231 10.4173 24.0833V33.875C10.4173 34.5654 10.9769 35.125 11.6673 35.125C12.3576 35.125 12.9173 34.5654 12.9173 33.875V22.8878C12.9173 22.1164 12.3927 21.4426 12.0147 20.7701C11.7481 20.2957 11.6518 19.7103 11.7923 19.125Z" fill="#245069"/>
<path id="Vector_6" d="M37.8346 19.3346L35.918 12.418C35.8346 12.168 35.7096 11.918 35.543 11.7513C34.7513 10.918 33.7513 10.293 32.668 9.91797C31.9596 9.66797 31.2096 9.54297 30.418 9.54297C29.6263 9.54297 28.8763 9.66797 28.168 9.91797C27.6414 10.0935 27.145 10.3294 26.6788 10.6166C26.1689 10.9306 26.1477 11.6287 26.293 12.2096L28.168 19.1263C28.3328 19.7149 28.2315 20.3035 27.9544 20.7793C27.5662 21.4459 27.043 22.1177 27.043 22.8891V33.918C27.043 34.6083 27.6026 35.168 28.293 35.168C28.9833 35.168 29.543 34.6083 29.543 33.918V24.0846C29.543 23.6244 29.9161 23.2513 30.3763 23.2513C30.8365 23.2513 31.2096 23.6244 31.2096 24.0846V33.8763C31.2096 34.5667 31.7693 35.1263 32.4596 35.1263C33.15 35.1263 33.7096 34.5667 33.7096 33.8763V20.2671C33.7096 19.2779 35.1149 19.0889 35.3763 20.043C35.543 20.5846 36.043 20.9596 36.5846 20.9596C36.7096 20.9596 36.793 20.9596 36.918 20.918C37.6263 20.7513 38.0013 20.0013 37.8346 19.3346Z" fill="#245069"/>
</g>
</g>
</svg>
