<svg width="40" height="40" viewBox="0 0 40 40" fill="none" xmlns="http://www.w3.org/2000/svg">
<g id="809638_heart_heart rate_medicine_science_technology_icon 1">
<path id="Vector" d="M36.6673 7.66602C32.334 3.33268 25.334 3.33268 21.0007 7.66602C20.9408 7.72582 20.8757 7.79099 20.8071 7.86056C20.306 8.36864 19.3646 8.36707 18.8617 7.86082C18.7997 7.79839 18.735 7.73373 18.6673 7.66602C14.5007 3.33268 7.50065 3.33268 3.33398 7.66602C-0.999349 11.9993 -0.999349 18.9993 3.33398 23.3327L17.834 37.8327L19.2935 39.2922C19.6841 39.6828 20.3172 39.6828 20.7078 39.2922L22.1673 37.8327L36.6673 23.3327C41.0007 18.9993 41.0007 11.9993 36.6673 7.66602ZM20.7269 35.389C20.3301 35.8126 19.6712 35.8126 19.2744 35.389C16.4566 32.3807 6.36027 21.666 5.50065 21.666H13.6011C13.9524 21.666 14.2779 21.4817 14.4586 21.1805L15.8972 18.7829C16.2639 18.1717 17.134 18.1294 17.5583 18.7021L22.5014 25.3753C22.9096 25.9264 23.7388 25.9124 24.1281 25.3478L26.3692 22.0983C26.5559 21.8276 26.8636 21.666 27.1924 21.666H34.5007C33.641 21.666 23.5447 32.3807 20.7269 35.389ZM35.937 19.4728C35.7805 19.8022 35.4407 19.9993 35.076 19.9993H26.3486C26.0257 19.9993 25.7226 20.1553 25.5349 20.4181L24.118 22.4018C23.7278 22.948 22.9209 22.9623 22.5116 22.4303L17.5317 15.9564C17.1103 15.4085 16.2735 15.4432 15.8988 16.0239L13.6294 19.5415C13.4452 19.8269 13.1288 19.9993 12.7891 19.9993H4.92526C4.56056 19.9993 4.22053 19.8023 4.06533 19.4723C2.55845 16.2681 3.13146 12.6932 5.50065 10.166C8.50065 7.16602 13.5007 6.99935 16.6673 9.99935C17.1135 10.4455 18.4555 11.7875 19.2943 12.6264C19.6849 13.0169 20.3164 13.0169 20.707 12.6264C21.5458 11.7875 22.8878 10.4455 23.334 9.99935C26.334 6.99935 31.334 7.16602 34.5007 10.3327C37.0279 12.702 37.4594 16.2689 35.937 19.4728Z" fill="#245069"/>
</g>
</svg>
