<svg width="16" height="17" viewBox="0 0 16 17" fill="none" xmlns="http://www.w3.org/2000/svg">
<g id="Icon">
<path id="Vector" d="M1.6875 3.2181C1.60417 3.25977 1.53125 3.31445 1.46875 3.38216C1.40625 3.44987 1.35417 3.52539 1.3125 3.60872L1.25 3.74935V9.38997C1.25 12.1921 1.2526 13.8405 1.25781 14.3353C1.26302 14.8301 1.28125 15.1139 1.3125 15.1868C1.35417 15.2806 1.41146 15.3639 1.48438 15.4368C1.55729 15.5098 1.64583 15.5671 1.75 15.6087C1.8125 15.6296 1.89062 15.6426 1.98438 15.6478C2.07812 15.653 2.26562 15.6504 2.54688 15.64C2.86979 15.64 3.06771 15.6374 3.14062 15.6322C3.21354 15.627 3.27604 15.6087 3.32812 15.5775C3.36979 15.5566 3.48177 15.4603 3.66406 15.2884C3.84635 15.1165 4.08854 14.8796 4.39062 14.5775L5.32812 13.6556L13.2188 13.64L13.3281 13.5775C13.4115 13.5358 13.6458 13.3223 14.0312 12.9368C14.4167 12.5514 14.6302 12.3171 14.6719 12.2337L14.7344 12.1243V7.93685L14.75 3.74935L14.6875 3.60872C14.6458 3.52539 14.5938 3.44987 14.5312 3.38216C14.4688 3.31445 14.3958 3.25977 14.3125 3.2181C14.2604 3.19727 13.9453 3.18424 13.3672 3.17904C12.7891 3.17383 11 3.17122 8 3.17122C5 3.17122 3.21094 3.17383 2.63281 3.17904C2.05469 3.18424 1.73958 3.19727 1.6875 3.2181ZM13.25 8.12435V11.5931L12.9688 11.8743L12.6875 12.1556L4.78125 12.1712L4.67188 12.2337C4.63021 12.2546 4.52083 12.3483 4.34375 12.515C4.16667 12.6816 3.93229 12.9056 3.64062 13.1868L2.75 14.0931V4.67122H13.25V8.12435Z" fill="#1A1A1A"/>
</g>
</svg>
