<svg width="32" height="32" viewBox="0 0 32 32" fill="none" xmlns="http://www.w3.org/2000/svg">
<g id="7089163_gmail_google_icon 1">
<path id="Vector" d="M30.0007 10.7998L26.6673 12.6331L23.334 15.7998V26.6665H28.0007C29.1053 26.6665 30.0007 25.7711 30.0007 24.6665V10.7998Z" fill="#4CAF50"/>
<path id="Vector_2" d="M2 10.7998L4.40933 11.9398L8.66667 15.7998V26.6665H4C2.89533 26.6665 2 25.7711 2 24.6665V10.7998Z" fill="#1E88E5"/>
<path id="Vector_3" d="M23.3333 7.4668L16 12.9668L8.66667 7.4668L8 11.3335L8.66667 15.8001L16 21.3001L23.3333 15.8001L24 11.3335L23.3333 7.4668Z" fill="#E53935"/>
<path id="Vector_4" d="M2 8.19834V10.7997L8.66667 15.7997V7.46634L6.584 5.90567C6.088 5.53367 5.48533 5.33301 4.86533 5.33301C3.28267 5.33301 2 6.61567 2 8.19834Z" fill="#C62828"/>
<path id="Vector_5" d="M30.0007 8.19834V10.7997L23.334 15.7997V7.46634L25.4167 5.90567C25.9127 5.53367 26.5153 5.33301 27.1353 5.33301C28.718 5.33301 30.0007 6.61567 30.0007 8.19834Z" fill="#FBC02D"/>
</g>
</svg>
