<svg width="40" height="40" viewBox="0 0 40 40" fill="none" xmlns="http://www.w3.org/2000/svg">
<g id="Vector">
<path id="Vector_2" fill-rule="evenodd" clip-rule="evenodd" d="M21.6003 1.35481C22.403 2.22145 22.8539 3.39622 22.8539 4.62107C22.8539 5.84591 22.403 7.02068 21.6003 7.88732L10.3468 20.0279L21.606 32.1685C22.3865 33.0406 22.818 34.2084 22.8077 35.4203C22.7974 36.6322 22.3461 37.7912 21.551 38.6478C20.7559 39.5043 19.6805 39.9899 18.5566 39.9998C17.4327 40.0098 16.3501 39.5434 15.542 38.701L1.25361 23.2942C0.450883 22.4275 0 21.2528 0 20.0279C0 18.8031 0.450883 17.6283 1.25361 16.7617L15.542 1.35481C15.9401 0.925304 16.4128 0.584581 16.933 0.352116C17.4532 0.119651 18.0109 0 18.574 0C19.1372 0 19.6948 0.119651 20.215 0.352116C20.7353 0.584581 21.2079 0.925304 21.606 1.35481H21.6003ZM38.7464 1.35481C39.5491 2.22145 40 3.39622 40 4.62107C40 5.84591 39.5491 7.02068 38.7464 7.88732L27.4928 20.0279L38.7521 32.1685C39.5326 33.0406 39.9641 34.2084 39.9538 35.4203C39.9435 36.6322 39.4922 37.7912 38.6971 38.6478C37.9019 39.5043 36.8266 39.9899 35.7027 39.9998C34.5788 40.0098 33.4962 39.5434 32.6881 38.701L18.3997 23.2942C17.597 22.4275 17.1461 21.2528 17.1461 20.0279C17.1461 18.8031 17.597 17.6283 18.3997 16.7617L32.6881 1.35481C33.0862 0.925304 33.5588 0.584581 34.0791 0.352116C34.5993 0.119651 35.157 0 35.7201 0C36.2832 0 36.8409 0.119651 37.3611 0.352116C37.8814 0.584581 38.354 0.925304 38.7521 1.35481H38.7464Z" fill="#245069"/>
</g>
</svg>
