<svg width="32" height="32" viewBox="0 0 32 32" fill="none" xmlns="http://www.w3.org/2000/svg">
<g id="5462573_direction_google_gps_location_map_icon 1" clip-path="url(#clip0_1957_5371)">
<g id="03-google map">
<path id="Vector" d="M22.5 12.5C24.1569 12.5 25.5 11.1569 25.5 9.5C25.5 7.84315 24.1569 6.5 22.5 6.5C20.8431 6.5 19.5 7.84315 19.5 9.5C19.5 11.1569 20.8431 12.5 22.5 12.5Z" fill="#A83229"/>
<path id="Vector_2" d="M20.5 31.5H3.5L12 23L20.5 31.5Z" fill="#4A9BF6"/>
<path id="Vector_3" d="M31.5 3.5V28.5C31.5 29.2956 31.1839 30.0587 30.6213 30.6213C30.0587 31.1839 29.2956 31.5 28.5 31.5H26.5L15 20L18.805 16.195C19.9565 17.6969 21.1901 19.1341 22.5 20.5C22.5 20.5 29.5 13.365 29.5 9.5C29.5006 8.38081 29.2313 7.27797 28.715 6.285L31.5 3.5Z" fill="#D3D9F2"/>
<path id="Vector_4" d="M31.4998 3.5L28.7148 6.285C28.0518 4.99692 27.0029 3.94809 25.7148 3.285L28.4998 0.5C29.2955 0.5 30.0586 0.81607 30.6212 1.37868C31.1838 1.94129 31.4998 2.70435 31.4998 3.5Z" fill="#FFDF64"/>
<path id="Vector_5" d="M26.5 31.5H20.5L12 23L15 20L26.5 31.5Z" fill="#F7F7FF"/>
<path id="Vector_6" d="M18.805 16.1947L15 19.9997L12 22.9997L3.5 31.4997C2.70435 31.4997 1.94129 31.1836 1.37868 30.621C0.81607 30.0584 0.5 29.2953 0.5 28.4997L16.445 12.5547C17.1261 13.8333 17.9157 15.0511 18.805 16.1947Z" fill="#FFDF64"/>
<path id="Vector_7" d="M28.5 0.5L25.715 3.285C24.6483 2.73206 23.4573 2.46316 22.2565 2.50421C21.0558 2.54525 19.8858 2.89486 18.8594 3.51934C17.833 4.14383 16.9847 5.02214 16.3963 6.06964C15.8079 7.11715 15.4992 8.29855 15.5 9.5C15.5777 10.5771 15.901 11.6221 16.445 12.555L0.5 28.5V3.5C0.5 2.70435 0.81607 1.94129 1.37868 1.37868C1.94129 0.81607 2.70435 0.5 3.5 0.5H28.5Z" fill="#28BE77"/>
<path id="Vector_8" d="M28.715 6.28503C29.2313 7.27801 29.5006 8.38084 29.5 9.50003C29.5 13.365 22.5 20.5 22.5 20.5C21.1901 19.1341 19.9565 17.6969 18.805 16.195C17.9157 15.0514 17.1261 13.8336 16.445 12.555C15.901 11.6222 15.5777 10.5771 15.5 9.50003C15.5013 7.93234 16.0288 6.41045 16.998 5.17824C17.9672 3.94604 19.322 3.07484 20.8453 2.70426C22.3685 2.33367 23.9721 2.48514 25.3991 3.13441C26.826 3.78367 27.9937 4.89314 28.715 6.28503ZM25.5 9.50003C25.5 8.90669 25.3241 8.32667 24.9944 7.83332C24.6648 7.33998 24.1962 6.95546 23.6481 6.7284C23.0999 6.50133 22.4967 6.44192 21.9147 6.55768C21.3328 6.67343 20.7982 6.95916 20.3787 7.37871C19.9591 7.79827 19.6734 8.33282 19.5576 8.91476C19.4419 9.49671 19.5013 10.0999 19.7284 10.6481C19.9554 11.1963 20.3399 11.6648 20.8333 11.9944C21.3266 12.3241 21.9067 12.5 22.5 12.5C23.2957 12.5 24.0587 12.184 24.6213 11.6214C25.1839 11.0587 25.5 10.2957 25.5 9.50003Z" fill="#D73D3F"/>
<path id="Vector_9" d="M5.5 29.5L3.5 31.5H20.5L18.5 29.5H5.5Z" fill="#3B7CC4"/>
<path id="Vector_10" d="M28.5 29.5H24.5L26.5 31.5H28.5C29.2956 31.5 30.0587 31.1839 30.6213 30.6213C31.1839 30.0587 31.5 29.2956 31.5 28.5V26.5C31.5 27.2956 31.1839 28.0587 30.6213 28.6213C30.0587 29.1839 29.2956 29.5 28.5 29.5Z" fill="#AEB2D4"/>
<path id="Vector_11" d="M31.0586 3.9415C31.3472 4.41011 31.5 4.94965 31.5001 5.5V3.5L31.0586 3.9415Z" fill="#B8BCE0"/>
<path id="Vector_12" d="M28.5 2.5C29.0143 2.50046 29.5199 2.63331 29.968 2.88578C30.4161 3.13825 30.7916 3.50182 31.0585 3.9415L31.5 3.5C31.5 2.70435 31.1839 1.94129 30.6213 1.37868C30.0587 0.816071 29.2956 0.5 28.5 0.5L26.5 2.5H28.5Z" fill="#FFB844"/>
<path id="Vector_13" d="M18.5 29.5L20.5 31.5H26.5L24.5 29.5H18.5Z" fill="#CACFE8"/>
<path id="Vector_14" d="M3.5 29.5001C2.98567 29.4996 2.48012 29.3668 2.03202 29.1143C1.58392 28.8618 1.20836 28.4983 0.9415 28.0586L0.5 28.5001C0.5 29.2957 0.81607 30.0588 1.37868 30.6214C1.94129 31.184 2.70435 31.5001 3.5 31.5001L5.5 29.5001H3.5Z" fill="#FFB844"/>
<path id="Vector_15" d="M0.5 26.5V28.5L0.9415 28.0585C0.652894 27.5899 0.500052 27.0504 0.5 26.5Z" fill="#1FA463"/>
<path id="Vector_16" d="M3.5 2.5H26.5L28.5 0.5H3.5C2.70435 0.5 1.94129 0.81607 1.37868 1.37868C0.81607 1.94129 0.5 2.70435 0.5 3.5V5.5C0.5 4.70435 0.81607 3.94129 1.37868 3.37868C1.94129 2.81607 2.70435 2.5 3.5 2.5Z" fill="#1FA463"/>
<path id="Vector_17" d="M6.50031 11C5.73927 11.0001 4.99065 10.8071 4.32446 10.4392C3.65826 10.0712 3.09627 9.54036 2.69102 8.89619C2.28578 8.25201 2.05053 7.51558 2.00728 6.75577C1.96402 5.99596 2.11417 5.23759 2.44369 4.55158C2.77321 3.86558 3.27132 3.27435 3.89145 2.83319C4.51158 2.39204 5.23347 2.11536 5.9896 2.02904C6.74573 1.94272 7.5114 2.04958 8.21501 2.33962C8.91861 2.62966 9.53716 3.09341 10.0128 3.6875L8.45031 4.9375C8.10868 4.51145 7.63695 4.20898 7.1072 4.07632C6.57746 3.94366 6.01885 3.98811 5.51674 4.20287C5.01464 4.41763 4.59667 4.79089 4.32672 5.26561C4.05676 5.74032 3.94967 6.29037 4.02181 6.83169C4.09395 7.373 4.34135 7.87581 4.72621 8.26326C5.11106 8.65071 5.6122 8.90148 6.15302 8.97725C6.69384 9.05303 7.2446 8.94963 7.72111 8.68287C8.19762 8.41611 8.57368 8.00065 8.79181 7.5H6.50031V5.5H10.0003C10.2655 5.5 10.5199 5.60536 10.7074 5.7929C10.895 5.98043 11.0003 6.23479 11.0003 6.5C10.9989 7.69303 10.5243 8.83678 9.68069 9.68038C8.83709 10.524 7.69334 10.9985 6.50031 11Z" fill="#F7F7FF"/>
<path id="Vector_18" d="M22.5 8.49988C23.1198 8.50058 23.7242 8.69324 24.23 9.05137C24.7359 9.4095 25.1184 9.91552 25.325 10.4999C25.4868 10.0471 25.5374 9.5621 25.4726 9.08568C25.4078 8.60927 25.2294 8.15541 24.9524 7.76236C24.6755 7.36931 24.3082 7.04858 23.8814 6.82719C23.4546 6.6058 22.9808 6.49023 22.5 6.49023C22.0192 6.49023 21.5454 6.6058 21.1186 6.82719C20.6918 7.04858 20.3245 7.36931 20.0476 7.76236C19.7706 8.15541 19.5922 8.60927 19.5274 9.08568C19.4626 9.5621 19.5132 10.0471 19.675 10.4999C19.8816 9.91552 20.2641 9.4095 20.77 9.05137C21.2758 8.69324 21.8802 8.50058 22.5 8.49988Z" fill="#91323C"/>
<path id="Vector_19" d="M15.6 10.3545C15.5354 10.7328 15.502 11.1157 15.5 11.4995C15.5178 12.0695 15.6307 12.6326 15.834 13.1655L16.445 12.5545C16.0679 11.8615 15.7838 11.1218 15.6 10.3545Z" fill="#1FA463"/>
<path id="Vector_20" d="M29.3963 10.3672C28.5408 14.3402 22.4998 20.4997 22.4998 20.4997C21.1899 19.1337 19.9564 17.6966 18.8048 16.1947L17.9648 17.0347C18.2393 17.4282 18.5188 17.8177 18.8048 18.1947C19.9564 19.6966 21.1899 21.1337 22.4998 22.4997C22.4998 22.4997 29.4998 15.3647 29.4998 11.4997C29.4965 11.12 29.4618 10.7412 29.3963 10.3672Z" fill="#AEB2D4"/>
<path id="Vector_21" d="M16.445 12.5547L15.834 13.1657C16.0049 13.6424 16.209 14.1066 16.445 14.5547C16.8957 15.4144 17.4035 16.2429 17.965 17.0347L18.805 16.1947C17.9157 15.0511 17.1261 13.8333 16.445 12.5547Z" fill="#FFB844"/>
</g>
</g>
<defs>
<clipPath id="clip0_1957_5371">
<rect width="32" height="32" fill="white"/>
</clipPath>
</defs>
</svg>
