<svg width="32" height="32" viewBox="0 0 32 32" fill="none" xmlns="http://www.w3.org/2000/svg">
<g id="211830_telephone_icon 2">
<path id="Vector" d="M25.9944 20.9693C25.0819 20.0318 22.4881 18.2756 20.7881 18.2756C20.3944 18.2756 20.0506 18.3631 19.7694 18.5443C18.9381 19.0756 18.2756 19.4881 17.9569 19.4881C17.7819 19.4881 17.5944 19.3318 17.1819 18.9756L17.1131 18.9131C15.9694 17.9193 15.7256 17.6631 15.2819 17.2006L15.1694 17.0818C15.0881 17.0006 15.0194 16.9256 14.9506 16.8568C14.5631 16.4568 14.2819 16.1693 13.2881 15.0443L13.2444 14.9943C12.7694 14.4568 12.4569 14.1068 12.4381 13.8506C12.4194 13.6006 12.6381 13.1943 13.1944 12.4381C13.8694 11.5256 13.8944 10.4006 13.2756 9.09434C12.7819 8.06309 11.9756 7.07559 11.2631 6.20684L11.2006 6.13184C10.5881 5.38184 9.87564 5.00684 9.08189 5.00684C8.20064 5.00684 7.46939 5.48184 7.08189 5.73184C7.05064 5.75059 7.01939 5.77559 6.98814 5.79434C6.11939 6.34434 5.48814 7.10059 5.25064 7.86934C4.89439 9.02559 4.65689 10.5256 6.36314 13.6443C7.83814 16.3443 9.17564 18.1568 11.3006 20.3381C13.3006 22.3881 14.1881 23.0506 16.1756 24.4881C18.3881 26.0881 20.5131 27.0068 22.0006 27.0068C23.3819 27.0068 24.4694 27.0068 26.0194 25.1381C27.6444 23.1756 26.9694 21.9756 25.9944 20.9693Z" fill="#245069"/>
</g>
</svg>
