<svg width="50" height="51" viewBox="0 0 50 51" fill="none" xmlns="http://www.w3.org/2000/svg">
<g id="1868967_arrow_control_go_music_pause_icon 1">
<g id="Layer_4_copy">
<path id="Vector" d="M15.6778 13.0898L34.9903 24.2398C35.7688 24.6893 35.7688 25.8133 34.9903 26.2628L15.6778 37.4128C14.8993 37.8623 13.9258 37.3003 13.9258 36.4013V14.1013C13.9258 13.2023 14.8988 12.6403 15.6778 13.0898Z" fill="#FFFDF7"/>
<path id="Vector_2" d="M34.9902 24.2395L15.6777 13.0895C15.5612 13.0225 15.4407 12.9845 15.3197 12.96L33.9902 23.7395C34.7687 24.189 34.7687 25.313 33.9902 25.7625L14.6777 36.9125C14.5032 37.013 14.3197 37.0565 14.1387 37.063C14.4667 37.532 15.1192 37.7345 15.6777 37.4125L34.9902 26.2625C35.7687 25.813 35.7687 24.689 34.9902 24.2395Z" fill="#FFFDF7"/>
<path id="Vector_3" d="M15.6778 13.0898L34.9903 24.2398C35.7688 24.6893 35.7688 25.8133 34.9903 26.2628L15.6778 37.4128C14.8993 37.8623 13.9258 37.3003 13.9258 36.4013V14.1013C13.9258 13.2023 14.8988 12.6403 15.6778 13.0898Z" stroke="#FFFDF7" stroke-width="0.5" stroke-miterlimit="10"/>
</g>
</g>
</svg>
