<svg width="16" height="17" viewBox="0 0 16 17" fill="none" xmlns="http://www.w3.org/2000/svg">
<g id="Icon">
<path id="Vector" d="M6.8125 1.2959C6.72917 1.31673 6.65625 1.35319 6.59375 1.40527C6.53125 1.45736 6.47917 1.51986 6.4375 1.59277C6.40625 1.64486 6.38542 1.69173 6.375 1.7334C6.36458 1.77507 6.35938 1.83236 6.35938 1.90527C6.35938 1.97819 6.36458 2.03548 6.375 2.07715C6.38542 2.11882 6.40625 2.16569 6.4375 2.21777C6.47917 2.29069 6.52865 2.35319 6.58594 2.40527C6.64323 2.45736 6.70833 2.49382 6.78125 2.51465H6.79688C6.86979 2.5459 7.27083 2.56152 8 2.56152C8.72917 2.56152 9.13021 2.5459 9.20312 2.51465C9.28646 2.49382 9.35677 2.45736 9.41406 2.40527C9.47135 2.35319 9.52083 2.29069 9.5625 2.21777C9.59375 2.16569 9.61458 2.11882 9.625 2.07715C9.63542 2.03548 9.64062 1.97819 9.64062 1.90527C9.64062 1.83236 9.63542 1.77507 9.625 1.7334C9.61458 1.69173 9.59375 1.64486 9.5625 1.59277C9.52083 1.51986 9.46875 1.45736 9.40625 1.40527C9.34375 1.35319 9.27083 1.31673 9.1875 1.2959C9.09375 1.26465 8.69531 1.24902 7.99219 1.24902C7.28906 1.24902 6.89583 1.26465 6.8125 1.2959ZM7.46875 3.28027C6.9375 3.33236 6.43229 3.44434 5.95312 3.61621C5.47396 3.78809 5.02604 4.00944 4.60938 4.28027L4.625 4.26465C4.0625 4.63965 3.57031 5.09538 3.14844 5.63184C2.72656 6.16829 2.40625 6.75423 2.1875 7.38965L2.17188 7.43652C2.07812 7.71777 2.0026 8.01725 1.94531 8.33496C1.88802 8.65267 1.85938 8.97819 1.85938 9.31152C1.85938 9.33236 1.85938 9.35579 1.85938 9.38184C1.85938 9.40788 1.85938 9.43131 1.85938 9.45215V9.43652C1.85938 9.44694 1.85938 9.45475 1.85938 9.45996C1.85938 9.46517 1.85938 9.46777 1.85938 9.46777C1.85938 9.96777 1.91667 10.4469 2.03125 10.9053C2.14583 11.3636 2.3125 11.7959 2.53125 12.2021L2.51562 12.1709C2.66146 12.473 2.82292 12.7464 3 12.9912C3.17708 13.236 3.40104 13.4886 3.67188 13.749C4.13021 14.2074 4.63021 14.5798 5.17188 14.8662C5.71354 15.1527 6.3125 15.3532 6.96875 15.4678C7.11458 15.499 7.24479 15.5173 7.35938 15.5225C7.47396 15.5277 7.6875 15.5303 8 15.5303C8.38542 15.5303 8.67969 15.5173 8.88281 15.4912C9.08594 15.4652 9.33854 15.4105 9.64062 15.3271C10.0573 15.2126 10.4583 15.0511 10.8438 14.8428C11.2292 14.6449 11.5833 14.4131 11.9062 14.1475C12.2292 13.8818 12.5208 13.5876 12.7812 13.2646C13.0521 12.9313 13.2812 12.5771 13.4688 12.2021L13.4844 12.1709C13.6927 11.7646 13.8568 11.3271 13.9766 10.8584C14.0964 10.3896 14.1562 9.90527 14.1562 9.40527C14.1562 8.91569 14.099 8.43913 13.9844 7.97559C13.8698 7.51204 13.7083 7.07715 13.5 6.6709L13.5156 6.70215C13.2656 6.20215 12.9609 5.74642 12.6016 5.33496C12.2422 4.9235 11.8385 4.57194 11.3906 4.28027L11.375 4.26465C11.0208 4.03548 10.6354 3.83757 10.2188 3.6709C9.80208 3.50423 9.36458 3.38965 8.90625 3.32715L8.875 3.31152C8.73958 3.30111 8.59115 3.29069 8.42969 3.28027C8.26823 3.26986 8.10417 3.26465 7.9375 3.26465C7.85417 3.26465 7.77083 3.26465 7.6875 3.26465C7.60417 3.26465 7.52083 3.26986 7.4375 3.28027H7.46875ZM12.8125 3.2959C12.7292 3.31673 12.6562 3.35319 12.5938 3.40527C12.5312 3.45736 12.4792 3.51986 12.4375 3.59277C12.4062 3.64486 12.3854 3.68913 12.375 3.72559C12.3646 3.76204 12.3594 3.82194 12.3594 3.90527C12.3594 3.91569 12.3594 3.9235 12.3594 3.92871C12.3594 3.93392 12.3594 3.93652 12.3594 3.93652C12.3594 3.98861 12.3646 4.03548 12.375 4.07715C12.3854 4.11882 12.3958 4.15527 12.4062 4.18652C12.4375 4.23861 12.6354 4.45215 13 4.82715C13.3646 5.20215 13.5885 5.41569 13.6719 5.46777C13.7135 5.49902 13.7526 5.51725 13.7891 5.52246C13.8255 5.52767 13.8958 5.53027 14 5.53027C14.1042 5.53027 14.1745 5.52507 14.2109 5.51465C14.2474 5.50423 14.2917 5.4834 14.3438 5.45215C14.3854 5.4209 14.4219 5.38965 14.4531 5.3584C14.4844 5.32715 14.5156 5.29069 14.5469 5.24902C14.5781 5.19694 14.599 5.15267 14.6094 5.11621C14.6198 5.07975 14.625 5.00944 14.625 4.90527C14.625 4.80111 14.6224 4.73079 14.6172 4.69434C14.612 4.65788 14.5938 4.61882 14.5625 4.57715C14.5417 4.5459 14.4688 4.46517 14.3438 4.33496C14.2188 4.20475 14.0781 4.06152 13.9219 3.90527C13.651 3.64486 13.4792 3.4834 13.4062 3.4209C13.3333 3.3584 13.2656 3.31673 13.2031 3.2959C13.1198 3.27507 13.0521 3.26204 13 3.25684C12.9479 3.25163 12.8854 3.26465 12.8125 3.2959ZM8.875 4.63965C9.36458 4.7334 9.81771 4.88965 10.2344 5.1084C10.6615 5.33757 11.0443 5.61621 11.3828 5.94434C11.7214 6.27246 12.0052 6.64486 12.2344 7.06152C12.4635 7.46777 12.6302 7.91048 12.7344 8.38965L12.75 8.4209C12.7812 8.56673 12.8047 8.72298 12.8203 8.88965C12.8359 9.05631 12.8438 9.22819 12.8438 9.40527C12.8438 10.0928 12.7109 10.736 12.4453 11.335C12.1797 11.9339 11.8177 12.4521 11.3594 12.8896C11.1719 13.0771 10.974 13.2438 10.7656 13.3896C10.5573 13.5355 10.3333 13.6657 10.0938 13.7803L10.0625 13.7959C9.76042 13.9417 9.4349 14.0537 9.08594 14.1318C8.73698 14.21 8.375 14.249 8 14.249C7.53125 14.249 7.07812 14.1839 6.64062 14.0537C6.20312 13.9235 5.79688 13.7438 5.42188 13.5146L5.4375 13.5303C4.97917 13.2282 4.57552 12.8636 4.22656 12.4365C3.8776 12.0094 3.60938 11.5355 3.42188 11.0146V10.9834C3.33854 10.7438 3.27344 10.4912 3.22656 10.2256C3.17969 9.95996 3.15625 9.69173 3.15625 9.4209C3.15625 9.34798 3.15625 9.28027 3.15625 9.21777C3.15625 9.15527 3.16146 9.09277 3.17188 9.03027V9.0459C3.19271 8.72298 3.23698 8.43652 3.30469 8.18652C3.3724 7.93652 3.46875 7.67611 3.59375 7.40527C3.77083 7.01986 3.99479 6.66048 4.26562 6.32715C4.53646 6.00423 4.84115 5.72038 5.17969 5.47559C5.51823 5.23079 5.88542 5.03027 6.28125 4.87402C6.67708 4.71777 7.09375 4.61882 7.53125 4.57715H7.54688C7.59896 4.57715 7.65104 4.57454 7.70312 4.56934C7.75521 4.56413 7.8125 4.56152 7.875 4.56152C8.05208 4.56152 8.22656 4.56934 8.39844 4.58496C8.57031 4.60059 8.74479 4.61882 8.92188 4.63965H8.875ZM7.76562 6.31152C7.70312 6.33236 7.64323 6.36621 7.58594 6.41309C7.52865 6.45996 7.48438 6.50944 7.45312 6.56152H7.4375L7.375 6.6709L7.35938 8.3584C7.35938 9.31673 7.36719 9.86881 7.38281 10.0146C7.39844 10.1605 7.46354 10.2803 7.57812 10.374C7.70312 10.499 7.84375 10.5615 8 10.5615C8.15625 10.5615 8.29688 10.499 8.42188 10.374C8.54688 10.2699 8.61719 10.1501 8.63281 10.0146C8.64844 9.87923 8.65625 9.37923 8.65625 8.51465C8.66667 8.00423 8.66927 7.611 8.66406 7.33496C8.65885 7.05892 8.65104 6.88965 8.64062 6.82715C8.60938 6.66048 8.54167 6.52767 8.4375 6.42871C8.33333 6.32975 8.19792 6.27507 8.03125 6.26465C8.02083 6.26465 8.01042 6.26465 8 6.26465C7.98958 6.26465 7.97917 6.26465 7.96875 6.26465C7.9375 6.26465 7.90365 6.26725 7.86719 6.27246C7.83073 6.27767 7.79688 6.29069 7.76562 6.31152Z" fill="#1A1A1A"/>
</g>
</svg>
